<mxfile host="app.diagrams.net" modified="2023-09-26T09:16:05.232Z" agent="Mozilla/5.0 (Windows NT 10.0; Win64; x64) AppleWebKit/537.36 (KHTML, like Gecko) Chrome/117.0.0.0 Safari/537.36 Edg/117.0.2045.43" etag="n9IrN7NfVgyL94lgJ5yN" version="21.8.2" type="github">
  <diagram id="C5RBs43oDa-KdzZeNtuy" name="Page-1">
    <mxGraphModel dx="1002" dy="569" grid="0" gridSize="10" guides="1" tooltips="1" connect="1" arrows="1" fold="1" page="1" pageScale="1" pageWidth="827" pageHeight="1169" math="0" shadow="0">
      <root>
        <mxCell id="WIyWlLk6GJQsqaUBKTNV-0" />
        <mxCell id="WIyWlLk6GJQsqaUBKTNV-1" parent="WIyWlLk6GJQsqaUBKTNV-0" />
        <mxCell id="cwTzV3AC_ZjuLaT7ShAX-0" value="" style="shape=image;verticalLabelPosition=bottom;labelBackgroundColor=default;verticalAlign=top;aspect=fixed;imageAspect=0;image=data:image/png,iVBORw0KGgoAAAANSUhEUgAAAq8AAAC2CAMAAADA+ZTVAAAAAXNSR0IArs4c6QAAAARnQU1BAACxjwv8YQUAAAFNUExURQAAAAAAAP///wAAAP///wAAAP///wAAAP///wAAAAAAAAAAAAAAAAAAAAAAAAAAAAAAAAAAAAAAAAAAAAAAAAAAAAAAAAAAAAAAAAAAAAAAAAAAAAAAAAAAAAAAAAAAAAAAAAAAAAAAAAAAAAAAAAAAAAAAAAAAAAAAAAAAAAAAAAAAAAAAAAAAAAAAAAAAAAAAAAAAAAAAAAAAAAAAAAAAAAAAAAAAAAAAAAAAAAAAAAAAAAAAAAAAAAAAAAAAAAAAAAAAAAAAAAAAAAAAAAAAAAAAAAAAAAAAAAAAAAAAAAAAAAAAAAAAAAAAAAAAAAAAAAAAAAAAAAAAAAAAAAAAAAAAAAAAAAAAAAAAAAAAAAAAAAAAAAAAAAAAAAAAAAAAAAAAAAAAAAAAAAAAAN/f3wAAAODg4AAAAODg4AAAAODg4AAAAN/f3+Dg4HIUIBMAAABsdFJOUwABAQICAwMEBQ8QERITHB0eHyAhKissLS44OTo7PD1GR0hTVFVWV1hiY2RlZmdvcHFyc3R1fX5/gIGCg4yNjo+QmZqbnJ2nqKmqq6y1t7jCw8TFxsfS09TV1t/g4eLj5O3u7/Dx+vz8/f3+/mmS6/4AAAAJcEhZcwAAFxEAABcRAcom8z8AABibSURBVHhe7Z3/e9tGcsapptcekquRtKZzgpOGteDkpKRtnOvFdJpTrj3HNp02iUXFkh2Ll1io67Lo/f8/dr7t7gCEKJKW6WEy7/NYGC5mF0vh4+UC4L7q/dnl2hj9svfn3svXOo6xgv73LySwrP/5SwnWrP/+KwmMyXm1Lee1KefVtpzXppxX23Jem3Jebct5bcp5tS3ntSnn1bac16acV9tyXpt6dbyW9VCic7Rw4jLKxuP/6+T13KOV01tbEl6csoPxmxI2xbzurHDM7I/T+vCNXq8vr89Q9mD8loRaS/KafdvZysXr58vrxBavk4vm9eb0cO+Pr8Pm/mtS0qnsweRCeJ38rYQvVy+H1/zrUSYhaClem1VRzusqvAYOdx9+MrfqhvB66T9Gv8LtS+J1Ml6Z10ZVlPO6Gq9jmAycr03h9fHh3+A2sjQoC4n6ZZmHsNcrSpwA5eWguwBUlAMmDMr71EpWTMZFP2LHx8BaUI9KM3iBYHA6KC8lalVFNRJTJh8udiuEqj+pQ6hUnA3KPPI6p1v4EtXqDrAz2+9GF3Tc8etBpd5wd87nNdVNJ4g7mDqflBUH46tUgj/4HeRca7scvE5BL3uvfPMcXvOd8kqfq1/eKVMf1QtqpYPX98pC/pOl5MtbcPgrUHxpZ8A7sWSnUQKvpYOw7/LOVSzNtr8/fLcPpcJrWdV1XeEvpDiGqD6mt1bWe2N4Mc5uS9FMAeRTzRspG4pHsKnrEe5G0TF43CoqGj1HkxwK9iVdH7NVFaUSdWZZDbAYO61C1R/VoUbxHob7wqt063SMv6ERQBOOBr/gIe0DQIfyiySV05hQHEFAUa88/YcDiKurrbg4xQg/ksvph1hK2akUPrAx/mJ8Dq9fhGOGgyJkPOwWT2kkvXeiubs7xaz3t3o7z29tbT9FJref4kx2+ymU86H5yAdzeM24mRoqbj/E8BHnygtCdBcb/MNBm9cdOs67cJzt72LyzrN/fAAvDn/178+xBHZeCyX/hiV/h+k/YMXfQldlH5begb11/dVfC69FNSmABTg9RVWVvWwfkITiEtAsinE9qcr+PkI0UwD5x334cK1L2nlc9EdQ3DW+8uf8kKCiOKX3hiMYBIbUXuf4GhN1JhdTT1Wo+qMrqmJ8h31glnmN3QK48hOgFitdxUpbgeJ7BF5UOcWEe5hwc3QFr2sgktL9Kdbg+PcYF6fHV+DDvr7eqBdLoWJxWl3v753W5/BKdaf3sW51fSuDxoHR/An+vDmt3tmSOCqOr8grpNza4oF0++nx2zAHmALJ20+r9/vA7BxeP33+2WvZ3dOPXqfkrezzKd5x6G3/SC+eH8KUEuMrwGyL1+0fJ+9ubX93C0D/sfogJO88qw/fKR5MJ9UHVz5//tUvkMn68N3i2+mfQsn2D49+vZV9M/3gNdz36N3+HSxtja8jGpooojMtm5KwLTVjrQKpWVTABO+kYt4XpI4Bwyf8p6BBTaWTsjFFzaqodqJkcjH1VIWqP7qiKua3Bv9DeT7Q0S34tRC62UGkWKkkJlNpdoARl/buMZkxZtaLU4BU1VOlvXtTpvYcXqnuE6xL+bK5d/oOhjUg2Z7ihvkr8Zo9qN65iYz27p4C2zzU3qUCHntnRLxyGypZNvqFtPJji9c7pzi0UjT9ACPa7DxjanHchRkpxNeo5FoquXP699jeD/d/gftgzsoz18b8FSZz+JmpIv6YDJ/hePJpz0yBQEYb3knFXbzi7nxye4LIICMqnSRRF6/NRAm5mD60U6j7oyqqYmkHNswrJuUn0i3ASCrRfBJmAvgDEFTi66004QyphAsOZCp+nVhmpFM9JpxLpZ3UXEv6eguS3sJ/qQR/5k++PIFxF9DFg0Y1eIWfkwpfSyluZOI6b/6aeIUs4nEHBtx4cYUvJG7PX9PrmPwMatIPgBtghB0n8EF/rVWSfTtGLrNvYHPt2b9i6TeY1+A1MRKiMEDhucvxXDIkMwX5BOcVIKiW8FANophXbLKsS5i6tmmCfSOcUxJI5/CaMrmYNinU/VEVVbG0D6XMa+yWYCSViB8eDFskaV6lNxAJo7RJ8ZsnfFgcs1O9XJXKOM3NdajNK42xoOIpMEo/d6bXYeoa8Ixq8grDIE4aYIiWQx++IROIuddbNHh++vz9rfx7bo3GWngBYyJR9prEbV5DSooISeb10vdtXi89DiX5Y5zsYgeX4rWUKSKeu/m8wmwT1cBDNYhiXnHHcJIDG0WFiSp9WB/vlrvHSGGrKkol6kwupk0KdX9URVUs7UMp8wrBm8PJm9itU0yXSswPfHDzp7ZS4g5G0OO9cvdoHq8wieTjqnrAaCxdldcdnMsSbDdP3oKPgOIpHTOpySvMWHHSgFOKcOhFeN15XldV/SUhKq0pXvHFwrzuPFuQV5inouBdnskrs6AjvjTmczeP11QzZFNJF6/Q5t54hJWHNJnUNGEj0tRcXnUmF0OrOH8NoTTCShVVsYSwYV5Dt06gWzirlErMD0wIhjgj1dLcYRKnCqM3cfKQYo1hqqdLJdZFDZ01H6CJB24+PBjBlOD+sDUdaPF6c/rJCVZUdEo4j1do9+rvh3izCbKIR7wAi3DS1RjHbV7Ta528AK9cyjqTV7kGyQYxGiuk5vEq+aSEB/zo4LWoDidD2HV8SDtTOiPKLLaqolS7OrOkWQH1VIWqP7qiKuZwKPcHYrcOoFs4ckmliNFxG6TGOAk1mNpyij/5Ck3FdP3FSvXCNROJ45tUpUNtXiUfL6BwR/H0cIKX/tB5ojOpwSt+jNPQGC6VUBzCkefwGr8VwMnZA/pvIS++xWsqjj993uRVrrKy97ZCRMnn87p15/kHUEDSvNKEFsQsFVU1LIc4Zy2qegQfuHTS5NzN5TWfVMN+f3cM5QoPgGJ/dxdekYTXbEz3FYZyezWlw479fnnM89dmVZRqV2eWdV0NoafQmApVf3RFVUzvdVSF+wPULYCs1S0Z77AUfttaepzE3hzJ/LWubu0eUbaK85PqFhz3YBhmCdQwll7hUrw/dau8B91ZkNfitL5/HRrHAih6UOO89Oa0xumBluYV6YYfSFb+BA/9mwOCGI98Wp3NK2CIU8nqI0zGwz6cIl0wF00vtn+sPruOrTR5peKbTwFDnbwAr5ceV5+93f/Ng1t4fyDx2rvz/A97u6/FsQ/vw9OD+z5GfGNdzt1cXjm/Pu7HM03FeHueTj9KjoFjGu+isU7TBG1UN/AhAqhRFaXbVZllvY9PLW5Dp1Wo+tOoqIvhAMfFKPCK3QJWgAPdLeEVaMJJgpbm7gh68wk+ZYDSL6gLNERDDFcNX2Lc57v7Vxr1VCmcw1OIrrav6oJmeOW68qwhDI9AUxqxWZpXnjzwnav+Qzr027jrKQTvNJ8zBMn11ulvS5igI+iX8REB3cYH6RfYyqN37p40eeVHCvexC5fxeQEnL8Arp9ePfo37FK/4GCE+LwDleCpJWZ+4WVz9WFWJHxKS4jHOVuNhoqo6q5iJYMkLFaI6+6OL+cHkIt9/lcuhM5V6A0iEFzoGdXdHlcpz0k4xr00tfYJaav8iukS80t0rBB1nEs3D6hdntJL3w3+hZTt8OdbUuoRYLMDSC+vlHIMHQpIKl9AivNId2EXEoydLxy+qLl7XIeIV72TBRrA1IZu8ZvujoOFZg+06eOXrp0W6Y4HX7PfSSejm3E+FBUS8wgz3/t7uf07lWwPzlX0uxx6NbrWu/S5QNnmN9/flIUKXynpPIh0uoQV4LU5HeOLjDX5+NtClcvqhRBS/El7jwwDo5iKEzRPPXy/ffTitjm4tBH/+vRwbjt6ay16gbPK6Fvn6rTliXu3JebUt57UpMX5zuTZA7k9oXT6+Kv2X82pdzquS82pezquS82pezquS82pezquS82pezquS82pezqvSXF7VQ/lsPJ55KnruM/uU4LyuLudVaXFeZ5/ibySvGdpxHOPSCZBVXrN7U/xGLL9YI69kjnEsy2qs8JqhU8YjWRseeZ01WftJ8pqN6xEuLWBgjfKaHdT38Qv7DOz6eM0eTOm4DKwRXrNvpl+9f/e0Qk8CzevMIr+fJK9hFSW/WaO88mIAdshYJ69y3Ofk4GKF19/REgM2zki8ahOgaCYmvGVsjpZ4FWM43J0syLR/mUqA6n07vMrbCO/GJq+yEicsyFkbr63lsjZ4lbUwsom8JpM17adGvAVztMBrNIbTLmy05koWfakEqE8rV63wGj5F2JzIKK9hBc69U5oQrI1XsSMQwyIjvIZV3GxSNDu+arc34i2aowmvyRhOmalBqXJTSwlDfAUVrfDKpjU4LaCVhTZ5Df4cN3nN99p4lUVacFxaA2ODV7LRAv3uGS3ynpm/yjJ92hCvXMDY0R65VsHdWIUrajc1lTCUes7rEnJelc7hNczs5KMczS2oIM5fYyA5XCAWF7hpJNxmBwzndRk5r0rn8BqGWTqxCGSL45gAUrzOuqmhYMIgPgLO6xJyXpUW5JXc3pbhte2mhoKEEeUY4pU7Z/p6S0yS1369tc0u3baut7Z/6LzeanNJ9ykRSCmIvMagwasqbSbkEyLDCq/RoYv7aJNXtuNa//2s/InB+1mXHk+67mfBKZSRhz4p2e2NgIzmaEKhJAwavEopqZlg6/6AdI69Qq3yKoZu7Je5Rl7FuI1d4azw2mP3t2vP0Dpe8QpnkkzWtNsbARnN0YTXZAyneW27qaWEId5FMMOrdE5uYRjllQzghut/Hkv2b3BcU89jt38g27j281gElUYd5fbGQAZzNOE1GcNpXrWbWisBp7BmeOXOUTdBRnnlPwDDXnDr5LW3jU5wZAQHMsIr/3EZNH9DJV5hjKQJARDY9uZqu3klY7iGlIlYO8EOr/j25H3a5bXRyTXy2jiuFV6hU5ejvYzm9SXKEq9KdnlVWiuvSnZ4VXJezct5VXJezct5VXJezct5VXJezct5VXJezct5VUJeXa6NkY+v1uXjq5LPB8zLeVVyXs3LeVVyXs3LeVVyXs3LeVVyXs3LeVVyXs3LeVV6YV75O66i5tcI1S7ndXU5r0oXyutQlpmITPK6Ef6Evd7OUfwzimvk1aQ/Ya937Ttaw4W6UF73jviP0Iss8roR/oTkp/kKeDXpT0h+mn96Kby2ZJHXjfAnzE+qT2RxLGh9vJr0J7z0uPqXB7w4FqR5FVdBUHQopClpUeK8NC8HXKKNCBnKaFLI89e8LMmJQO2ywqssNrO9nruX//PrYTE3aG28mvQn7F36pzfCYm5Q4jW6CvKSPLEdLOs99CAcZ7dDkTIiRGmTQhpQaYIIGuldVngNZh6m/TJQr4JXk/6EqC5ek6sgGhIGh0Jgrh4XxbieVGV/Hy+nlBEhSZsUEq/4iZuNqj0cX+MuK7xuhB8R6lXwatKPCNXFa3IVFOuL4CyB2JY08NLgpIwISdqkEHll3w2x34q7nNcl5bwqdfAaZnQposFSfvJpxj3KiBA2IE7gSjO8xl3O65JyXpU6eA0TuxTxqWXm8kngVRkRYtIsrzwuEw/O6+pyXpUW4pU9pmZ5jUaErBleYdZaVfXt5i47vPKb8+utDpn0J0QtNB8IdyqbvKY8UZtXSC32h3RjyyCvG+FPiHoVvJr0J0R1Xm/RJyS6CkpEDoUzvIarsahZXuMfQjTIa7yK5GmB89qQSX9CUBevyVVQOxTO8qqMCEltXmFcRlV7NnndCH/CbFDuHlV75YBO0vp4NelPmL1X7j48/Uh+GZHX5CqoHQpnedVGhKgZXkfVjRJxL03yuhH+hPkJ/opr+QrB+ng16U946fGUfhn8FYLEK/yaAoOzDoVNJSPCWTGk8UJcZIdXfHPhWtHwfEBpjbw2fjl25gNKmtcLkdwpEmyDLPGq5LzO0c+DV5ggjnZ3v5avHwQ5r6vLeVW6cF57/dFRXR0N48cKyXldXc6r0sXz2inndXU5r0rOq3k5r0rOq3k5r0rIq8u1MfLx1bp8fFXy+YB5Oa9Kzqt5Oa9Kzqt5Oa9Kzqt5Oa9Kzqt5Oa9Kzqt5Oa9Kzqt5Oa9KPzte3Z9wruC4tHgLZIfXi/QnXExmeHV/wnlCP01zvF6sP+FiMsOr+xPOUf4Ej2uM1xf1J4S4H8NswFGyLISoFWBrVnjldWZhY5bXV+NPSMeVxdwgK7y+mD9hWQ2wABPL+gZkllAhWhbyUkXYFwNuzQqvwQzE/TLOkD1eQd3ruRfzJ2TTQdpL4aAPFaJlIXKQfQxDcAy4NSu8uh/ROdoYXmXEwYjPZXCWQGyVP6FM/XBvWfOnKldFFKINXPKD42ac1yXlvCp18BpmdCniFa78k08z7ZGFr3jdIqG2LBzV+8xpCKQ153VJOa9KHbyGiV2K+NQyk8ovQyDFjYTasjCHyeptBDQE0przuqScV6WFeO32J+zkVVsWwlyXZxYcmOOV35xfb52hzZ0PdPsTBkhxgJIwVWUFMzUKZKcVXt2f8BxtzvUWfUKe70/IF1m0V3iVClGcHAJb11vSHfcnPEsbw+ui/oRoRzyEvVAQeE2WhcVk2C++BiRiIK2Z4dX9CecIrQCPqg/luEZ4fUF/wrLex0cHtyEx8JosC+nLJFgzBrLTDK/uTzhH+RM5Lg2xRnh9QX9ChDSLiVHRsjDWTE1Aa3Z4xe7QJRfK7nxAaa3zASU78wElzetCioPqUrLEq5LzOkfOqzk5r3P0U+F1T6Jl5LyuLudVaWleV5PzurqcVyXn1bycVyXn1bycVyXk1eXaGPn4al0+vir5fMC8nFcl59W8nFcl59W8nFcl59W8nFcl59W8nFcl59W8nFelxCs6YoQ1XIsoG4/lG4PzvgIjWc7r6nJelRKvw3q8i9/CXlRhDdR5vFKWHV7dn3CuNsafMOG3oDaTV/cnnKcN8idMjiwLajN5dX/COdogf8KsGI8LWdOS3Am5IMdXEPajf2E2KPMmr8GysJeXXVlWeJXuhL5b5dX9CZO6/QlxVkdeg9qdsKQCOrniU8imhXvoR7iveN0PloXa2lBnWeE1mIG4X8YZ2hi/jDC+anfCBq9oSziidfuY0gcaE6/RsnA4gjaGs1lWeHU/onO0Mf4DYf4q5he0afCKu3l44pSiSrxSVakZmmpkOa9LynlVmsNrmNnRNVSDV7xOoVBSQqbkhksZUEeW87qknFelObyGCR6d2G5eJUVIBAmvtClGOGudyXJel5TzqrQAr+QwtTyvw/p4t9w9Nswrvz2/3jpDmzofoA/3ZecDJdv/dWRZ4dX9Cc/Rhl5vsTsh2/gN8eNd8SopVExKloU8qDIUjSwrvEqv3J/wLG0cr9qdMJ/U++WoQvw0r+TxN6rU/YFgWZiN6/1+eUyMNrLM8Eq9cn/Cbm2SP2HgteFOiLf/j4tRi1f600dcTCqrQbAsRBv46gbv0VlmeHV/wjnaMH/CIO1OSM9iZzVTHC0LtXdhyrLDK/aQ/2OC7M4HlNY6H1CyMx9Q6uL1JcgSr0rO6xw5r+bkvM6R82pOzuscOa/m5LzOkfNqTs7rHDmv5uS8zpFZXl2ujZGPr9bl46uSzwfMy3lVcl7Ny3lVcl7Ny3lVcl7Ny3lVcl7Ny3lVcl7Ny3lVcl7Ny3lV+hnyWuJySJZdXt2fUKnLn/Dlyg6v6Kdpnlf3J1Tq9id8uTLDaz6pbsjiWJBRXt2fUKnbnxA1iM6CyaEQfQmLEte45OJACHEwI+z3sgFHRTmQRSYQtQJszQ6vH2dhMTfIKq/uT5jU7U/IywPJY7BhMii+hGN0i6eishoEM8KyvgGZJVSgqrhEkRcrwr4YcGtmeAXZ5xXk67mVungtqkkBbA0xSg6FuFZ7XBTjelKV/X32fIlmhBQO+lDhGEbaMZKLvinZxzAEx4Bbc16XlPOq1MWrOPRgRJYS0VkCsS1pqCQ3DGVGyD4ZoSpaU8VF4TGQZpzXJeW8KnXwmk5iiNhxgH+yTRrt4QLyK5JQ2KTNqN5nTkMgrTmvS8p5VergNfi8pYgZZSbzSZtX3EiYT2CCioJ66JdxG2kIgbTmvC4p51VpIV7ZY2ohXsdFH8WYj/kySwLndTU5r0oLzQfCX1Lp5hUNVCVU558UzNQokJ3O65JyXpU6r7fouigbxIgcCrt4xbNNe4VXqRDFySHw662V5LwqdfEqxn1AmHYo7OI1mBFGXvNJNez3d8fDXjEZ9ouvgdAYSGtmeEXrv+NqV55lGOXV/QmVzvAn5Pv6I5xsaofCDl73gxlh4JUroOkf/bFLrBkD2WmG13BxyEOsUV7dn1DpbH/CHB+7krRDYUsIqfYgFPVDUayZmoDWzPDalN35gNJa5wNKduYDSprXhRQH1aXkvK4u51XJeTUv51VpBV73JFpGzuvqcl6VluZ1NTmvq8t5VXJezct5VXJezct5VUJeXa6N0S8FXJdrA9Tr/T9ixoWSr5uTmQAAAABJRU5ErkJggg==;strokeWidth=1;imageBackground=none;imageBorder=#64FF5E;" vertex="1" parent="WIyWlLk6GJQsqaUBKTNV-1">
          <mxGeometry x="30" y="120" width="310" height="82.13" as="geometry" />
        </mxCell>
        <mxCell id="cwTzV3AC_ZjuLaT7ShAX-2" value="" style="endArrow=classic;html=1;rounded=0;" edge="1" parent="WIyWlLk6GJQsqaUBKTNV-1">
          <mxGeometry width="50" height="50" relative="1" as="geometry">
            <mxPoint x="356" y="164.5" as="sourcePoint" />
            <mxPoint x="456" y="164.5" as="targetPoint" />
          </mxGeometry>
        </mxCell>
        <mxCell id="cwTzV3AC_ZjuLaT7ShAX-3" value="" style="whiteSpace=wrap;html=1;aspect=fixed;fillColor=#d5e8d4;strokeColor=#77da3e;" vertex="1" parent="WIyWlLk6GJQsqaUBKTNV-1">
          <mxGeometry x="465" y="128" width="80" height="80" as="geometry" />
        </mxCell>
        <mxCell id="cwTzV3AC_ZjuLaT7ShAX-4" value="Function to check data is balance or not" style="text;strokeColor=none;align=center;fillColor=none;html=1;verticalAlign=middle;whiteSpace=wrap;rounded=0;" vertex="1" parent="WIyWlLk6GJQsqaUBKTNV-1">
          <mxGeometry x="475" y="153" width="60" height="30" as="geometry" />
        </mxCell>
        <mxCell id="cwTzV3AC_ZjuLaT7ShAX-6" value="User click on train button" style="text;html=1;strokeColor=none;fillColor=none;align=center;verticalAlign=middle;whiteSpace=wrap;rounded=0;" vertex="1" parent="WIyWlLk6GJQsqaUBKTNV-1">
          <mxGeometry x="376" y="123" width="60" height="30" as="geometry" />
        </mxCell>
        <mxCell id="cwTzV3AC_ZjuLaT7ShAX-7" value="" style="endArrow=classic;html=1;rounded=0;" edge="1" parent="WIyWlLk6GJQsqaUBKTNV-1">
          <mxGeometry width="50" height="50" relative="1" as="geometry">
            <mxPoint x="509" y="215" as="sourcePoint" />
            <mxPoint x="509" y="292" as="targetPoint" />
          </mxGeometry>
        </mxCell>
        <mxCell id="cwTzV3AC_ZjuLaT7ShAX-10" value="Filter unbalnced column" style="whiteSpace=wrap;html=1;aspect=fixed;fillColor=#d5e8d4;strokeColor=#82b366;" vertex="1" parent="WIyWlLk6GJQsqaUBKTNV-1">
          <mxGeometry x="478" y="307" width="80" height="80" as="geometry" />
        </mxCell>
        <mxCell id="cwTzV3AC_ZjuLaT7ShAX-11" value="" style="endArrow=classic;html=1;rounded=0;fontFamily=Helvetica;fontSize=12;fontColor=default;" edge="1" parent="WIyWlLk6GJQsqaUBKTNV-1">
          <mxGeometry width="50" height="50" relative="1" as="geometry">
            <mxPoint x="572" y="345" as="sourcePoint" />
            <mxPoint x="727" y="345" as="targetPoint" />
          </mxGeometry>
        </mxCell>
        <mxCell id="cwTzV3AC_ZjuLaT7ShAX-12" value="Pop up messgae that your what happened and why happened colum is unblanced ,we will balance it" style="text;html=1;strokeColor=none;fillColor=none;align=center;verticalAlign=middle;whiteSpace=wrap;rounded=0;fontSize=12;fontFamily=Helvetica;fontColor=default;" vertex="1" parent="WIyWlLk6GJQsqaUBKTNV-1">
          <mxGeometry x="573" y="292" width="167" height="30" as="geometry" />
        </mxCell>
        <mxCell id="cwTzV3AC_ZjuLaT7ShAX-13" value="" style="endArrow=classic;html=1;rounded=0;fontFamily=Helvetica;fontSize=12;fontColor=default;" edge="1" parent="WIyWlLk6GJQsqaUBKTNV-1">
          <mxGeometry width="50" height="50" relative="1" as="geometry">
            <mxPoint x="517.5" y="396" as="sourcePoint" />
            <mxPoint x="385" y="466" as="targetPoint" />
            <Array as="points">
              <mxPoint x="518" y="468" />
            </Array>
          </mxGeometry>
        </mxCell>
        <mxCell id="cwTzV3AC_ZjuLaT7ShAX-14" value="Training endpoint call" style="text;html=1;strokeColor=none;fillColor=none;align=center;verticalAlign=middle;whiteSpace=wrap;rounded=0;fontSize=12;fontFamily=Helvetica;fontColor=default;" vertex="1" parent="WIyWlLk6GJQsqaUBKTNV-1">
          <mxGeometry x="430" y="426" width="60" height="30" as="geometry" />
        </mxCell>
        <mxCell id="cwTzV3AC_ZjuLaT7ShAX-15" value="If data is unblance due to undersampling else dont do anything" style="whiteSpace=wrap;html=1;aspect=fixed;strokeColor=#82b366;align=center;verticalAlign=middle;fontFamily=Helvetica;fontSize=12;fontColor=default;fillColor=#d5e8d4;" vertex="1" parent="WIyWlLk6GJQsqaUBKTNV-1">
          <mxGeometry x="286" y="409" width="97" height="97" as="geometry" />
        </mxCell>
        <mxCell id="cwTzV3AC_ZjuLaT7ShAX-17" value="" style="endArrow=classic;html=1;rounded=0;fontFamily=Helvetica;fontSize=12;fontColor=default;" edge="1" parent="WIyWlLk6GJQsqaUBKTNV-1">
          <mxGeometry width="50" height="50" relative="1" as="geometry">
            <mxPoint x="272" y="468" as="sourcePoint" />
            <mxPoint x="98" y="468" as="targetPoint" />
          </mxGeometry>
        </mxCell>
        <mxCell id="cwTzV3AC_ZjuLaT7ShAX-18" value="Send for training now" style="text;html=1;strokeColor=none;fillColor=none;align=center;verticalAlign=middle;whiteSpace=wrap;rounded=0;fontSize=12;fontFamily=Helvetica;fontColor=default;" vertex="1" parent="WIyWlLk6GJQsqaUBKTNV-1">
          <mxGeometry x="160" y="426" width="60" height="30" as="geometry" />
        </mxCell>
        <mxCell id="cwTzV3AC_ZjuLaT7ShAX-19" value="" style="ellipse;whiteSpace=wrap;html=1;strokeColor=#82b366;align=center;verticalAlign=middle;fontFamily=Helvetica;fontSize=12;fontColor=default;fillColor=#d5e8d4;" vertex="1" parent="WIyWlLk6GJQsqaUBKTNV-1">
          <mxGeometry x="24" y="426" width="67" height="80" as="geometry" />
        </mxCell>
        <mxCell id="cwTzV3AC_ZjuLaT7ShAX-20" value="" style="ellipse;whiteSpace=wrap;html=1;strokeColor=#82b366;align=center;verticalAlign=middle;fontFamily=Helvetica;fontSize=12;fontColor=default;fillColor=#d5e8d4;" vertex="1" parent="WIyWlLk6GJQsqaUBKTNV-1">
          <mxGeometry x="754" y="307" width="67" height="80" as="geometry" />
        </mxCell>
      </root>
    </mxGraphModel>
  </diagram>
</mxfile>
